<?xml version="1.0" encoding="UTF-8"?>
<svg width="22px" height="22px" viewBox="0 0 22 22" version="1.1" xmlns="http://www.w3.org/2000/svg" xmlns:xlink="http://www.w3.org/1999/xlink">
    <!-- Generator: Sketch 44.1 (41455) - http://www.bohemiancoding.com/sketch -->
    <title>instagram 2</title>
    <desc>Created with Sketch.</desc>
    <defs></defs>
    <g id="Page-1" stroke="none" stroke-width="1" fill="none" fill-rule="evenodd">
        <g id="instagram" fill-rule="nonzero" fill="#000000">
            <path d="M15.445,0 L6.554,0 C2.93546852,0.00275739774 0.00275739774,2.93546852 0,6.554 L0,15.445 C0.0022059456,19.063922 2.93507838,21.9972419 6.554,22 L15.445,22 C19.0636932,21.9966913 21.9962434,19.0636937 21.999,15.445 L21.999,6.554 C21.9973446,2.93501166 19.0639883,0.00165540394 15.445,0 Z M19.787,15.445 C19.786448,17.8427917 17.8427917,19.786448 15.445,19.787 L6.554,19.787 C5.40252194,19.787 4.29822003,19.3295087 3.48409586,18.515197 C2.66997168,17.7008853 2.21273474,16.596478 2.213,15.445 L2.213,6.554 C2.21273467,5.4026139 2.67000351,4.2983094 3.48415645,3.48415645 C4.2983094,2.67000351 5.4026139,2.21273467 6.554,2.213 L15.445,2.213 C17.8422394,2.21355204 19.785448,4.1567606 19.786,6.554 L19.787,15.445 L19.787,15.445 Z" id="Shape"></path>
            <path d="M11,5.312 C7.862,5.312 5.312,7.863 5.312,11 C5.312,14.137 7.863,16.688 11,16.688 C14.137,16.688 16.688,14.137 16.688,11 C16.688,7.863 14.138,5.312 11,5.312 Z M11,14.475 C9.08081049,14.4752761 7.52477614,12.9196895 7.5245,11.0005 C7.52422386,9.08131049 9.07981049,7.52527614 10.999,7.525 C12.9181895,7.52472386 14.4742239,9.08031049 14.4745,10.9995 C14.4747761,12.9186895 12.9191895,14.4747239 11,14.475 L11,14.475 Z M16.7,3.991 C17.4525035,3.9915523 18.0621837,4.60182943 18.0619996,5.35433309 C18.0618155,6.10683675 17.4518367,6.71681549 16.6993331,6.71699959 C15.9468294,6.71718369 15.3365523,6.10750348 15.336,5.355 C15.336,4.603 15.846,3.991 16.7,3.991 Z" id="Shape"></path>
        </g>
    </g>
</svg>